<?xml version="1.0" encoding="utf-8"?>
<!-- Generator: Adobe Illustrator 26.2.1, SVG Export Plug-In . SVG Version: 6.00 Build 0)  -->
<svg version="1.1" id="Layer_1" xmlns="http://www.w3.org/2000/svg" xmlns:xlink="http://www.w3.org/1999/xlink" x="0px" y="0px"
	 viewBox="0 0 79 79" style="enable-background:new 0 0 79 79;" xml:space="preserve">
<g>
	<path d="M39.5,0.3C17.9,0.3,0.3,17.9,0.3,39.5s17.5,39.1,39.1,39.1s39.1-17.5,39.1-39.1S61.1,0.3,39.5,0.3z M39.5,56.6l-22-22
		l3.6-3.7l18.4,18.3L57.9,31l3.6,3.7L39.5,56.6z"/>
	<path d="M39.5,0.3C17.9,0.3,0.3,17.9,0.3,39.5s17.5,39.1,39.1,39.1s39.1-17.5,39.1-39.1S61.1,0.3,39.5,0.3z M39.5,56.6l-22-22
		l3.6-3.7l18.4,18.3L57.9,31l3.6,3.7L39.5,56.6z"/>
</g>
</svg>
